<?xml version="1.0" encoding="utf-8"?>
<!-- Generator: Adobe Illustrator 16.0.0, SVG Export Plug-In . SVG Version: 6.00 Build 0)  -->
<!DOCTYPE svg PUBLIC "-//W3C//DTD SVG 1.1//EN" "http://www.w3.org/Graphics/SVG/1.1/DTD/svg11.dtd">
<svg version="1.1" id="圖層_1" xmlns="http://www.w3.org/2000/svg" xmlns:xlink="http://www.w3.org/1999/xlink" x="0px" y="0px"
	 width="50px" height="50px" viewBox="0 0 50 50" enable-background="new 0 0 50 50" xml:space="preserve">
<g>
	<path fill="#0077FB" d="M27.5,12.5h-5v10H12.499v5H22.5v9.999h5V27.5h9.999v-5H27.5V12.5z M25,0C11.249,0,0,11.249,0,25
		c0,13.749,11.249,25,25,25c13.749,0,25-11.251,25-25C50,11.249,38.749,0,25,0z M25,44.999c-11,0-20-9-20-19.999C5,14,14,5,25,5
		c10.999,0,19.999,9,19.999,20C44.999,35.999,35.999,44.999,25,44.999z"/>
</g>
</svg>
